<?xml version="1.0" encoding="iso-8859-1"?>
<!-- Generator: Adobe Illustrator 16.0.0, SVG Export Plug-In . SVG Version: 6.00 Build 0)  -->
<!DOCTYPE svg PUBLIC "-//W3C//DTD SVG 1.1//EN" "http://www.w3.org/Graphics/SVG/1.1/DTD/svg11.dtd">
<svg version="1.1" id="Capa_1" xmlns="http://www.w3.org/2000/svg" xmlns:xlink="http://www.w3.org/1999/xlink" x="0px" y="0px"
	 width="45.303px" height="45.303px" viewBox="0 0 45.303 45.303" style="enable-background:new 0 0 45.303 45.303;"
	 xml:space="preserve">
<g>
	<g>
		<path d="M4.611,14.566c1.166-1.167,2.717-1.809,4.366-1.809c1.052,0,2.065,0.262,2.963,0.754c0.898-0.492,1.911-0.754,2.963-0.754
			c1.65,0,3.2,0.643,4.365,1.808c1.167,1.165,1.809,2.717,1.809,4.366c0,0.473-0.053,0.937-0.156,1.387
			c0.599-0.014,1.18-0.021,1.736-0.021c0.558,0,1.14,0.007,1.739,0.021c-0.457-2.005,0.092-4.195,1.648-5.752
			c1.166-1.166,2.717-1.809,4.367-1.809c1.052,0,2.064,0.262,2.963,0.754c0.898-0.492,1.912-0.754,2.963-0.754
			c1.648,0,3.2,0.642,4.366,1.809c2.248,2.247,2.396,5.814,0.43,8.252c0.935,0.332,1.796,0.702,2.56,1.116V12.747h0.004
			c-0.342-3.185-9.631-5.735-21.041-5.735c-11.409,0-20.698,2.551-21.041,5.735H1.609v11.195c0.766-0.416,1.631-0.789,2.568-1.122
			C2.214,20.395,2.359,16.817,4.611,14.566z"/>
		<path d="M45.297,28.429c-0.208-1.851-3.224-3.501-7.89-4.627c1.032-1.027,1.868-1.859,1.905-1.895
			c1.641-1.644,1.641-4.308,0-5.948c-0.821-0.821-1.897-1.231-2.974-1.231c-1.071,0-2.144,0.407-2.963,1.22
			c-0.819-0.813-1.892-1.22-2.963-1.22c-1.076,0-2.151,0.41-2.974,1.231c-1.643,1.641-1.643,4.305,0,5.948
			c0.018,0.017,0.221,0.219,0.541,0.537c-1.707-0.115-3.489-0.177-5.322-0.177s-3.615,0.062-5.321,0.177
			c0.32-0.318,0.522-0.52,0.54-0.537c1.643-1.644,1.643-4.308,0-5.948c-0.821-0.821-1.897-1.231-2.973-1.231
			c-1.071,0-2.143,0.407-2.963,1.22c-0.82-0.813-1.892-1.22-2.963-1.22c-1.076,0-2.152,0.41-2.973,1.231
			c-1.641,1.641-1.641,4.305,0,5.948c0.037,0.036,0.873,0.867,1.905,1.895c-4.666,1.126-7.682,2.776-7.89,4.627H0v5.293
			c0,0.705,0.579,1.282,1.285,1.282h2.653v2.005c0,0.704,0.581,1.282,1.287,1.282h4.337c0.706,0,1.293-0.578,1.293-1.282v-2.005
			h23.627v2.005c0,0.704,0.565,1.282,1.271,1.282h4.337c0.706,0,1.274-0.578,1.274-1.282v-2.005h2.665
			c0.707,0,1.273-0.577,1.273-1.282L45.297,28.429z"/>
	</g>
</g>
<g>
</g>
<g>
</g>
<g>
</g>
<g>
</g>
<g>
</g>
<g>
</g>
<g>
</g>
<g>
</g>
<g>
</g>
<g>
</g>
<g>
</g>
<g>
</g>
<g>
</g>
<g>
</g>
<g>
</g>
</svg>
